# xmcd
#
# Track frame offsets:
#	150
#	16373
#	31344
#	48076
#	66544
#	83211
#	102350
#	117067
#	138919
#	153689
#	168711
#	186427
#
# Disc length: 2739 seconds
#
# Revision: 0
# Processed by: cddbd v1.5.2PL0 Copyright (c) Steve Scherf et al.
# Submitted via: FairStars CD Ripper 1.90
#
DISCID=a30ab10c
DTITLE=Jan Blohm - Die Runaway Sessies
DYEAR=2010
DGENRE=Blues
TTITLE0='n Stille Runaway
TTITLE1=Groen Trui
TTITLE2=In Wens
TTITLE3=Dromer
TTITLE4=Waterdief
TTITLE5=Ja, Ma
TTITLE6=Symondstraat nr. 30
TTITLE7=Mossie Bruin
TTITLE8=Loneranger
TTITLE9=Truly Trudie
TTITLE10=Vanoggend Van Gogh
TTITLE11=Soos 'n Rots
EXTD=
EXTT0=
EXTT1=
EXTT2=
EXTT3=
EXTT4=
EXTT5=
EXTT6=
EXTT7=
EXTT8=
EXTT9=
EXTT10=
EXTT11=
PLAYORDER=
